<?xml version="1.0" encoding="UTF-8"?>
<svg version="1.1" xmlns="http://www.w3.org/2000/svg" width="512" height="512">
<path d="M0 0 C11.15334133 -0.09297745 22.30658935 -0.16390534 33.46024036 -0.20724869 C38.64021885 -0.22805897 43.81993075 -0.25625603 48.99975586 -0.30175781 C54.00536887 -0.34545044 59.01072663 -0.36918635 64.01651573 -0.37950897 C65.91935935 -0.3868585 67.82219014 -0.40120973 69.72492409 -0.42292023 C81.32265216 -0.54990215 92.02403504 -0.66164083 101.8125 6.5 C108.86313229 13.48935248 111.66617673 22.22878015 111.83538818 31.94923401 C111.82638489 33.15272995 111.81738159 34.35622589 111.80810547 35.59619141 C111.82183197 36.89861282 111.83555847 38.20103424 111.84970093 39.54292297 C111.88524492 43.07818732 111.88329097 46.61245054 111.87181616 50.14783907 C111.8655891 53.11256628 111.87786389 56.07710705 111.88989365 59.04180753 C111.91787213 66.03942619 111.91495282 73.03655586 111.89208984 80.03417969 C111.86910252 87.22841628 111.89734158 94.42116384 111.95088279 101.61520445 C111.99531078 107.81947899 112.00844749 114.02328795 111.99672997 120.22771013 C111.9900191 123.92151473 111.99462764 127.61436385 112.02923203 131.30803299 C112.06614895 135.42717009 112.03768615 139.54343747 112.00341797 143.66259766 C112.03242187 145.47391426 112.03242187 145.47391426 112.06201172 147.32182312 C111.90742915 156.22124386 109.12205858 160.69937711 103 167 C101.96164922 168.21028914 100.92975518 169.42621564 99.91015625 170.65234375 C98.96232604 171.74859792 98.01310602 172.84365198 97.0625 173.9375 C93.48497128 178.08132095 89.94997313 182.24858121 86.5 186.5 C82.5662143 191.34596789 78.51552241 196.08098528 74.44140625 200.80859375 C71.41041716 204.33317903 68.43007419 207.89048832 65.5 211.5 C62.06791987 215.7279248 58.55448829 219.8752789 55 224 C50.67827137 229.01591689 46.44520804 234.09175299 42.26953125 239.23046875 C37.45311061 245.10799411 32.505057 250.87611914 27.58398438 256.66601562 C22.8648039 262.22068034 18.15924951 267.78059925 13.5625 273.4375 C9.60491812 278.30129025 5.53457554 283.05881231 1.44165039 287.80834961 C-1.58945289 291.33298919 -4.56985316 294.89039882 -7.5 298.5 C-11.4290305 303.34011003 -15.46918214 308.07472748 -19.54760742 312.78881836 C-21.92235727 315.54182678 -24.26718086 318.30573701 -26.51953125 321.16015625 C-32.21128811 328.36454355 -36.92032094 333.43532043 -46 336 C-48.91798973 336.25447559 -48.91798973 336.25447559 -52.02059937 336.26069641 C-53.20368179 336.26778122 -54.38676422 336.27486603 -55.60569763 336.28216553 C-56.89001175 336.27968811 -58.17432587 336.27721069 -59.49755859 336.2746582 C-60.87461116 336.27900921 -62.25166131 336.28419366 -63.62870789 336.29014587 C-67.35813706 336.30350613 -71.0874647 336.30411781 -74.81691313 336.30158257 C-77.93555532 336.30051072 -81.05417715 336.30540176 -84.17281497 336.310188 C-91.53351982 336.32127315 -98.89417365 336.32172634 -106.25488281 336.31567383 C-113.83594617 336.30963573 -121.41682386 336.32194308 -128.99785554 336.3432439 C-135.51780481 336.36088642 -142.03769513 336.36685704 -148.55766737 336.36360615 C-152.44680496 336.36179719 -156.33581012 336.3643906 -160.22492599 336.37832069 C-163.88414663 336.3909375 -167.54307887 336.38891885 -171.2022953 336.37590981 C-173.175953 336.37243369 -175.14961966 336.3836939 -177.12324524 336.39547729 C-185.92000525 336.3435701 -192.85766232 335.48462061 -199.6875 329.4375 C-200.39261719 328.83808594 -201.09773437 328.23867188 -201.82421875 327.62109375 C-208.31910556 319.79691234 -209.72704154 312.44547947 -209.56762695 302.48193359 C-209.56835709 301.27103058 -209.56908722 300.06012756 -209.56983948 298.81253052 C-209.56697264 295.52353531 -209.54206734 292.23563285 -209.50696969 288.94685316 C-209.47550709 285.49827887 -209.47275992 282.04967835 -209.46684265 278.60098267 C-209.45136212 272.08457428 -209.41041341 265.56859018 -209.3600952 259.05236781 C-209.30402002 251.62791171 -209.27666982 244.20343432 -209.25161803 236.77881885 C-209.1994913 221.51896094 -209.11064482 206.25955211 -209 191 C-203.72 191 -198.44 191 -193 191 C-192.99120064 193.13111488 -192.99120064 193.13111488 -192.98222351 195.30528259 C-192.92495537 208.70899738 -192.85234763 222.112556 -192.76428509 235.5161047 C-192.71940434 242.40663557 -192.67997214 249.29711566 -192.65356445 256.18774414 C-192.62805348 262.84033504 -192.58709696 269.49271662 -192.53681374 276.14517403 C-192.52015755 278.68038673 -192.50863553 281.21563865 -192.50238609 283.75089836 C-192.49273182 287.30804976 -192.46465497 290.8646226 -192.43237305 294.42163086 C-192.43452568 295.98609703 -192.43452568 295.98609703 -192.4367218 297.58216858 C-192.35798978 303.73597759 -191.79162267 309.42044639 -189 315 C-184.68749461 318.53846596 -180.29261984 319.11933843 -174.84942627 319.15821838 C-173.81114307 319.16799241 -172.77285988 319.17776644 -171.70311356 319.18783665 C-169.99623934 319.19649203 -169.99623934 319.19649203 -168.25488281 319.20532227 C-167.03520184 319.21535499 -165.81552086 319.22538771 -164.55887985 319.23572445 C-161.9326953 319.2565953 -159.30657061 319.27573982 -156.68035889 319.29173279 C-152.91626156 319.31508402 -149.15223501 319.34316117 -145.38818359 319.3729248 C-136.34216081 319.44139514 -127.29607579 319.5014334 -118.25 319.5625 C-87.93125 319.7790625 -87.93125 319.7790625 -57 320 C-57 275.12 -57 230.24 -57 184 C-91.98 184 -126.96 184 -163 184 C-158.90941215 180.93205911 -154.71447278 178.5098283 -150.265625 176.01171875 C-147.14527235 174.28863616 -147.14527235 174.28863616 -145.60386658 172.50202942 C-141.0852456 167.99375979 -136.57311159 167.46344407 -130.40356445 167.44921875 C-127.80900109 167.47398077 -125.21815971 167.52978897 -122.62465858 167.6083374 C-119.81808535 167.68879567 -117.01419219 167.72405758 -114.20658875 167.74658203 C-106.23092594 167.81603909 -98.2576885 167.94528427 -90.28442383 168.15380859 C-85.39226649 168.27857226 -80.50321805 168.33363234 -75.60954857 168.34683228 C-73.75818297 168.3653987 -71.90687 168.40986599 -70.05681801 168.48202515 C-58.7429942 169.02922055 -58.7429942 169.02922055 -49.0340271 163.96142578 C-46.16494302 161.06936998 -43.65154568 157.97131119 -41.24925804 154.68533325 C-39.53419657 152.37159979 -37.62327851 150.25492661 -35.6875 148.125 C-34.78926861 147.08540047 -33.89224704 146.04474017 -33 145 C-34.24088379 144.98598145 -34.24088379 144.98598145 -35.50683594 144.97167969 C-39.25516415 144.91799681 -43.00224162 144.8343429 -46.75 144.75 C-48.05195313 144.73582031 -49.35390625 144.72164062 -50.6953125 144.70703125 C-51.94570313 144.67480469 -53.19609375 144.64257812 -54.484375 144.609375 C-55.63647461 144.58842773 -56.78857422 144.56748047 -57.97558594 144.54589844 C-61.58407476 143.89457611 -62.77449029 142.85640495 -65 140 C-65.53125 138 -65.53125 138 -65.5 136 C-65.51546875 135.01 -65.51546875 135.01 -65.53125 134 C-64.71152884 130.91399093 -63.58782099 129.89965722 -61 128 C-57.803211 127.52649314 -54.6611971 127.73025944 -51.44140625 127.8828125 C-49.50851468 127.91707977 -47.57556575 127.94822664 -45.64257812 127.9765625 C-42.61211197 128.04006868 -39.5877728 128.12383284 -36.55981445 128.26367188 C-23.88526227 129.12376111 -23.88526227 129.12376111 -12.81835938 123.95263672 C-9.94596272 121.06833889 -7.47745274 117.96136791 -5.14819336 114.62765503 C-3.70002482 112.57476142 -2.06845427 110.72797688 -0.375 108.875 C0.14320313 108.27429688 0.66140625 107.67359375 1.1953125 107.0546875 C3.58781774 104.33075297 6.04405942 101.66656731 8.5 99 C11.53892335 95.6997517 14.56156156 92.3905059 17.5 89 C20.9067735 85.0691075 24.43002785 81.24803427 27.953125 77.421875 C30.50555143 74.64505943 33.02983288 71.85019283 35.5 69 C38.9067735 65.0691075 42.43002785 61.24803427 45.953125 57.421875 C48.50555143 54.64505943 51.02983288 51.85019283 53.5 49 C56.4384423 45.60948965 59.46122787 42.30039165 62.5 39 C68.82470729 32.12708717 74.92119774 25.09193597 81 18 C37.44 17.505 37.44 17.505 -7 17 C-5.60863728 12.82591183 -4.20818227 9.08081438 -2.375 5.125 C-1.70597656 3.67480469 -1.70597656 3.67480469 -1.0234375 2.1953125 C-0.68570313 1.47085938 -0.34796875 0.74640625 0 0 Z M91.6171875 32.25 C87.93334541 35.95036156 84.42457891 39.74513933 81.015625 43.69921875 C78.55519731 46.5077302 76.03025008 49.25461879 73.5 52 C70.46095466 55.30013347 67.43843541 58.6094976 64.5 62 C61.0932265 65.9308925 57.56997215 69.75196573 54.046875 73.578125 C51.49444857 76.35494057 48.97016712 79.14980717 46.5 82 C43.0932265 85.9308925 39.56997215 89.75196573 36.046875 93.578125 C33.49444857 96.35494057 30.97016712 99.14980717 28.5 102 C25.0932265 105.9308925 21.56997215 109.75196573 18.046875 113.578125 C15.49444857 116.35494057 12.97016712 119.14980717 10.5 122 C7.0932265 125.9308925 3.56997215 129.75196573 0.046875 133.578125 C-2.50555143 136.35494057 -5.02983288 139.14980717 -7.5 142 C-10.9067735 145.9308925 -14.43002785 149.75196573 -17.953125 153.578125 C-21.05869281 156.95670976 -24.09968335 160.38109734 -27.1015625 163.8515625 C-30.12780606 167.27632373 -33.24074517 170.62232091 -36.35742188 173.96484375 C-40.07440566 177.98065416 -41.12615697 179.75250146 -41.11352539 185.18408203 C-41.11344986 186.26505157 -41.11337433 187.34602112 -41.11329651 188.45974731 C-41.10813522 189.63060883 -41.10297394 190.80147034 -41.09765625 192.0078125 C-41.09553383 193.8014473 -41.09553383 193.8014473 -41.09336853 195.63131714 C-41.08775663 199.46256987 -41.07520208 203.29376484 -41.0625 207.125 C-41.05748653 209.71744707 -41.05292336 212.30989506 -41.04882812 214.90234375 C-41.03778333 221.26824898 -41.02103359 227.63412037 -41 234 C-39.81736572 232.81627808 -39.81736572 232.81627808 -38.61083984 231.60864258 C-37.15501385 230.1540418 -35.69627069 228.70229175 -34.2265625 227.26171875 C-30.64464958 223.74096044 -27.28772254 220.09501694 -24.0078125 216.29296875 C-21.58927388 213.53094118 -19.11108624 210.82602288 -16.625 208.125 C-11.71185169 202.78385667 -6.84520789 197.40292966 -2 192 C2.84521093 186.59706695 7.71208598 181.21636096 12.625 175.875 C15.60218281 172.63782784 18.55952856 169.38862271 21.4375 166.0625 C25.06212089 161.87890143 28.83385067 157.8356539 32.59741211 153.77758789 C35.27401038 150.88635872 37.92311179 147.98110596 40.5 145 C44.10082614 140.83433839 47.85390974 136.81399952 51.59765625 132.77734375 C54.27415929 129.88618383 56.92318724 126.98101868 59.5 124 C63.10082614 119.83433839 66.85390974 115.81399952 70.59765625 111.77734375 C73.80061872 108.31750209 76.99169059 104.85872219 79.96386719 101.19604492 C82 99 82 99 84.94042969 96.76098633 C89.65460806 92.94749712 93.32140188 89.13105848 94.63867188 83.05316162 C95.51216498 74.6087112 95.09289425 66.15256705 94.75 57.6875 C94.68972491 55.0971292 94.63498656 52.50662331 94.5859375 49.91601562 C94.45453306 43.60770075 94.25447417 37.30448689 94 31 C92.81296447 30.888236 92.81296447 30.888236 91.6171875 32.25 Z M94 110 C92.67861615 111.38898954 91.39445332 112.81339446 90.125 114.25 C86.57518661 118.24071378 82.99436362 122.19731329 79.375 126.125 C76.39749099 129.36186504 73.4404633 132.61138669 70.5625 135.9375 C66.93787911 140.12109857 63.16614933 144.1643461 59.40258789 148.22241211 C56.72598962 151.11364128 54.07688821 154.01889404 51.5 157 C47.89917386 161.16566161 44.14609026 165.18600048 40.40234375 169.22265625 C37.72584071 172.11381617 35.07681276 175.01898132 32.5 178 C28.89917386 182.16566161 25.14609026 186.18600048 21.40234375 190.22265625 C18.72584071 193.11381617 16.07681276 196.01898132 13.5 199 C9.89917386 203.16566161 6.14609026 207.18600048 2.40234375 211.22265625 C-0.27415929 214.11381617 -2.92318724 217.01898132 -5.5 220 C-9.10082614 224.16566161 -12.85390974 228.18600048 -16.59765625 232.22265625 C-19.81942733 235.70281498 -22.9723757 239.22917183 -26.0703125 242.8203125 C-29.31071171 246.48052052 -32.65756316 250.04416697 -36.00195312 253.609375 C-39.77427874 257.65772444 -41.12703361 259.42435576 -41.11352539 264.90869141 C-41.11344986 265.92959869 -41.11337433 266.95050598 -41.11329651 268.00234985 C-41.10813522 269.10759003 -41.10297394 270.2128302 -41.09765625 271.3515625 C-41.0962413 272.4807309 -41.09482635 273.60989929 -41.09336853 274.77328491 C-41.08775744 278.39054988 -41.07520303 282.00775364 -41.0625 285.625 C-41.05748643 288.07291577 -41.05292328 290.52083252 -41.04882812 292.96875 C-41.0377844 298.97918766 -41.02103544 304.98958946 -41 311 C-37.43602911 307.4709336 -34.08581869 303.8503959 -30.875 300 C-29.90634582 298.84627371 -28.93759298 297.69263025 -27.96875 296.5390625 C-27.47761719 295.95286133 -26.98648438 295.36666016 -26.48046875 294.76269531 C-25.04462855 293.05313623 -23.60206101 291.34956832 -22.15625 289.6484375 C-17.91289253 284.65542269 -13.69502573 279.64811275 -9.5625 274.5625 C-5.60556582 269.69950576 -1.53564058 264.94299797 2.55615234 260.19384766 C6.35401501 255.77691282 10.05680041 251.29046003 13.73046875 246.76953125 C18.54688939 240.89200589 23.494943 235.12388086 28.41601562 229.33398438 C33.1351961 223.77931966 37.84075049 218.21940075 42.4375 212.5625 C46.39508188 207.69870975 50.46542446 202.94118769 54.55834961 198.19165039 C57.58945289 194.66701081 60.56985316 191.10960118 63.5 187.5 C67.42952752 182.6592777 71.47559576 177.92918628 75.54541016 173.20678711 C79.39558978 168.72970505 83.15519117 164.1903419 86.8671875 159.59765625 C89 157 89 157 90.50018311 155.54672241 C94.45239391 151.53762407 95.68295956 148.72488439 95.67977905 143.10829163 C95.64881134 142.26946945 95.61784363 141.43064728 95.5859375 140.56640625 C95.57744781 139.68846909 95.56895813 138.81053192 95.56021118 137.9059906 C95.52683419 135.12353663 95.45159001 132.34406597 95.375 129.5625 C95.34487985 127.6673598 95.31750765 125.77217381 95.29296875 123.87695312 C95.22709507 119.25016643 95.12368729 114.62558757 95 110 C94.67 110 94.34 110 94 110 Z " fill="#000000" transform="translate(401,144)"/>
<path d="M0 0 C16.53400408 13.04475908 27.63342845 30.82633941 30.89453125 51.796875 C32.69679003 75.52462641 29.01516171 97.734931 13.15625 116.2421875 C12.40988281 117.08523437 11.66351563 117.92828125 10.89453125 118.796875 C9.94034228 119.91726006 8.98869015 121.0398087 8.0390625 122.1640625 C3.50979878 127.51261036 -1.07732021 132.79881044 -5.79296875 137.984375 C-8.82259743 141.31914614 -11.71154967 144.72975139 -14.54296875 148.234375 C-18.4048855 153.00971902 -22.48221099 157.53355185 -26.640625 162.05078125 C-29.03254172 164.71562666 -31.29801759 167.44519325 -33.54296875 170.234375 C-37.20182644 174.7708423 -41.05415838 179.055536 -45.02148438 183.31835938 C-47.99248065 186.52968728 -50.80500707 189.82306289 -53.54296875 193.234375 C-57.38656932 198.01309128 -61.47507039 202.48845187 -65.66381836 206.96069336 C-68.7810082 210.30786827 -71.74120673 213.72692523 -74.60546875 217.296875 C-78.94075808 222.6962808 -83.59998336 227.73737866 -88.3203125 232.796875 C-90.52074441 235.15695042 -92.67628332 237.54846787 -94.79296875 239.984375 C-95.32921875 240.59796875 -95.86546875 241.2115625 -96.41796875 241.84375 C-97.65968362 243.28091998 -98.88676383 244.73076678 -100.10546875 246.1875 C-113.26242996 261.50596198 -131.52667252 272.39290613 -151.89941406 274.02001953 C-174.49256486 275.19498124 -195.40635784 270.88287669 -212.9375 255.7890625 C-213.65292969 255.13164062 -214.36835938 254.47421875 -215.10546875 253.796875 C-215.81058594 253.16007812 -216.51570313 252.52328125 -217.2421875 251.8671875 C-232.81862166 237.0918271 -240.99580895 217.38786727 -241.57641602 196.16259766 C-241.75553756 175.02625529 -236.38104547 155.84924023 -222.10546875 139.796875 C-221.46351563 139.05953125 -220.8215625 138.3221875 -220.16015625 137.5625 C-215.02278494 131.76163055 -209.6987859 126.12809116 -204.40454102 120.47070312 C-199.84158935 115.59406005 -195.31900087 110.68268539 -190.8125 105.75390625 C-186.43338663 100.96550006 -182.02513552 96.20390425 -177.62158203 91.43798828 C-175.11532771 88.72509914 -172.61046429 86.01092641 -170.10546875 83.296875 C-169.10547551 82.21353543 -168.10547551 81.13020209 -167.10546875 80.046875 C-166.61046875 79.510625 -166.11546875 78.974375 -165.60546875 78.421875 C-152.10546875 63.796875 -138.60546875 49.171875 -125.10546875 34.546875 C-124.61038818 34.01046387 -124.11530762 33.47405273 -123.60522461 32.92138672 C-122.60633587 31.8394063 -121.60715016 30.75769997 -120.60766602 29.67626953 C-118.08814295 26.94942055 -115.57415043 24.2178264 -113.0703125 21.4765625 C-110.58014707 18.75290645 -108.07411977 16.04481215 -105.55371094 13.34912109 C-104.6050485 12.33233152 -103.66022719 11.31194136 -102.71972656 10.28759766 C-75.76727343 -18.94485062 -32.19261564 -22.83853487 0 0 Z M-69.10546875 6.796875 C-70.03359375 7.19777344 -70.96171875 7.59867188 -71.91796875 8.01171875 C-83.96236597 13.91415773 -92.89778271 24.38789161 -101.70361328 34.23779297 C-104.12286369 36.92837693 -106.58470353 39.5794804 -109.04296875 42.234375 C-110.05219214 43.3267224 -111.06130642 44.41917061 -112.0703125 45.51171875 C-112.57159668 46.05425293 -113.07288086 46.59678711 -113.58935547 47.15576172 C-116.09560979 49.86865085 -118.6004902 52.58280792 -121.10546875 55.296875 C-124.11649747 58.55923185 -127.12782401 61.82131092 -130.140625 65.08203125 C-135.42589261 70.80319722 -140.70146925 76.53291732 -145.96118164 82.27758789 C-149.33348172 85.95915139 -152.71753235 89.62970109 -156.10546875 93.296875 C-157.10028758 94.37497494 -158.09507928 95.4530999 -159.08984375 96.53125 C-161.15941117 98.7739577 -163.23313141 101.01274766 -165.30859375 103.25 C-166.32431357 104.34887069 -167.33994203 105.44782585 -168.35546875 106.546875 C-168.83371094 107.06056641 -169.31195313 107.57425781 -169.8046875 108.10351562 C-172.10673352 110.14279828 -172.10673352 110.14279828 -173.10546875 112.796875 C-171.91953125 112.76207031 -170.73359375 112.72726563 -169.51171875 112.69140625 C-153.59469305 112.36552244 -136.11528955 113.29242315 -122.4921875 122.578125 C-120.22228571 124.0743628 -120.22228571 124.0743628 -118.0625 123.2421875 C-115.76071563 121.54226691 -113.79782836 119.71590594 -111.79296875 117.671875 C-110.71595703 116.58519531 -110.71595703 116.58519531 -109.6171875 115.4765625 C-107.61712021 113.34274265 -105.68336876 111.18301621 -103.765625 108.9765625 C-100.22548381 104.90551917 -96.56139507 100.96676374 -92.85546875 97.046875 C-87.45309971 91.30873163 -82.09286961 85.53752091 -76.77734375 79.71875 C-73.91669207 76.590435 -71.04435225 73.4732155 -68.16796875 70.359375 C-67.66958496 69.81974121 -67.17120117 69.28010742 -66.65771484 68.72412109 C-64.63373824 66.53294926 -62.609339 64.34216811 -60.58496094 62.15136719 C-55.2484938 56.37562816 -49.91611157 50.59637958 -44.60546875 44.796875 C-41.30112992 41.18836115 -37.99175962 37.58462532 -34.67285156 33.98950195 C-33.67551208 32.90915872 -32.67875989 31.82827301 -31.68261719 30.74682617 C-29.02973267 27.86911359 -26.3637673 25.00490887 -23.6796875 22.15625 C-22.84522095 21.26570923 -22.84522095 21.26570923 -21.99389648 20.35717773 C-20.92062761 19.21226164 -19.84344797 18.07099617 -18.76196289 16.93383789 C-15.97706356 14.30721558 -15.97706356 14.30721558 -15.10546875 10.796875 C-31.87280261 1.59484579 -51.1473116 -0.98661974 -69.10546875 6.796875 Z M-2.10546875 22.796875 C-3.90966494 24.66846052 -5.67056357 26.56070604 -7.41796875 28.484375 C-8.51815832 29.68626277 -9.61842072 30.88808388 -10.71875 32.08984375 C-11.28287598 32.70778809 -11.84700195 33.32573242 -12.42822266 33.96240234 C-14.97699426 36.75009809 -17.54139371 39.52326265 -20.10546875 42.296875 C-21.10555679 43.38012706 -22.10555647 44.4634607 -23.10546875 45.546875 C-77.10546875 104.046875 -77.10546875 104.046875 -78.60668945 105.6730957 C-79.60275576 106.75223514 -80.59868762 107.8314987 -81.59448242 108.91088867 C-84.15355761 111.68444193 -86.71521065 114.45554372 -89.28125 117.22265625 C-94.64207367 123.00814059 -99.96852137 128.80979901 -105.10546875 134.796875 C-104.30109375 135.663125 -103.49671875 136.529375 -102.66796875 137.421875 C-87.82258281 154.83530163 -81.94564827 174.22791469 -81.10546875 196.796875 C-77.51509173 194.09470972 -74.7465171 191.33068582 -71.98046875 187.796875 C-68.65834273 183.64697672 -65.22807309 179.68080678 -61.60546875 175.796875 C-58.15341767 172.08867518 -54.8402218 168.31178432 -51.66796875 164.359375 C-47.82436818 159.58065872 -43.73586711 155.10529813 -39.54711914 150.63305664 C-36.4299293 147.28588173 -33.46973077 143.86682477 -30.60546875 140.296875 C-27.2624432 136.13020548 -23.75426354 132.19273552 -20.10546875 128.296875 C-15.58765297 123.47160862 -11.32777944 118.51137171 -7.1953125 113.34765625 C-5.18194867 110.89022339 -3.07648821 108.5642703 -0.91796875 106.234375 C11.27584486 92.49214062 14.99102817 77.01152256 14.3125 59.01953125 C13.44333662 45.52436988 8.24266709 32.67919003 -1.10546875 22.796875 C-1.43546875 22.796875 -1.76546875 22.796875 -2.10546875 22.796875 Z M-210.8984375 152.796875 C-215.21456599 158.66375408 -218.25579981 165.11740754 -221.10546875 171.796875 C-221.48960937 172.68761719 -221.87375 173.57835937 -222.26953125 174.49609375 C-226.81777944 187.69451489 -225.58345825 205.17517505 -220.10546875 217.796875 C-219.70457031 218.79589844 -219.30367187 219.79492188 -218.890625 220.82421875 C-212.53390182 235.14066487 -200.20347724 246.48029155 -185.91796875 252.671875 C-168.98955043 259.14770126 -151.85795589 259.26991948 -135.10546875 251.796875 C-118.60210827 244.31032916 -107.60019277 231.52138411 -101.10546875 214.796875 C-100.78449219 214.00410156 -100.46351563 213.21132813 -100.1328125 212.39453125 C-94.97389621 197.2057219 -97.17109738 178.94408278 -103.79296875 164.671875 C-112.88420489 147.51944424 -127.19445029 136.89828972 -145.35546875 130.796875 C-170.09282459 125.0335576 -194.43637348 133.88424103 -210.8984375 152.796875 Z " fill="#000000" transform="translate(361.10546875,46.203125)"/>
<path d="M0 0 C0.66 0 1.32 0 2 0 C2.69888677 2.74755487 3.3843988 5.49731197 4.0625 8.25 C4.26166016 9.02730469 4.46082031 9.80460937 4.66601562 10.60546875 C4.84970703 11.35957031 5.03339844 12.11367188 5.22265625 12.890625 C5.39547119 13.58188477 5.56828613 14.27314453 5.74633789 14.98535156 C6.13076914 18.03860148 5.57911003 20.19224458 3.79296875 22.68359375 C3.26316406 23.26238281 2.73335938 23.84117187 2.1875 24.4375 C1.56230469 25.12714844 0.93710938 25.81679688 0.29296875 26.52734375 C-0.46371094 27.34332031 -1.22039062 28.15929687 -2 29 C-2.96243991 30.04278389 -3.92466571 31.08576543 -4.88671875 32.12890625 C-6.45458909 33.82753604 -8.02340525 35.52524672 -9.5949707 37.22045898 C-12.82019677 40.70289619 -15.97682737 44.23115436 -19.07421875 47.828125 C-20.69703788 49.65832264 -22.34661192 51.45033736 -24.01953125 53.234375 C-24.5609375 53.81316406 -25.10234375 54.39195312 -25.66015625 54.98828125 C-26.74080928 56.14046687 -27.82530138 57.28906682 -28.9140625 58.43359375 C-31.46790172 61.15900873 -33.43683241 63.61806394 -35 67 C-34.32646484 66.97905273 -33.65292969 66.95810547 -32.95898438 66.93652344 C-15.13500645 66.45660038 -0.27282444 66.80073116 15.546875 75.92578125 C18.40473527 77.1772328 19.13861918 77.03156782 22 76 C24.17009274 74.06881655 26.17948363 72.14802726 28.1875 70.0625 C28.73341797 69.51142578 29.27933594 68.96035156 29.84179688 68.39257812 C32.77638679 65.46291398 32.77638679 65.46291398 35 62 C39.07453229 62.62304741 41.89539701 64.76532621 45.25 67.0625 C46.32765625 67.79597656 47.4053125 68.52945313 48.515625 69.28515625 C49.33546875 69.85105469 50.1553125 70.41695313 51 71 C45.81643758 77.13842918 40.42287737 83.07341663 35 89 C35.845625 89.94875 36.69125 90.8975 37.5625 91.875 C51.76322848 108.54832591 57.68130101 126.49101598 60 148 C60.78246094 147.0615625 61.56492188 146.123125 62.37109375 145.15625 C63.39307626 143.93737178 64.41521999 142.71862872 65.4375 141.5 C65.95376953 140.87996094 66.47003906 140.25992188 67.00195312 139.62109375 C68.31264268 138.06197284 69.65397292 136.52871719 71 135 C71.33 135 71.66 135 72 135 C73.66798241 160.83519422 73.66798241 160.83519422 68.3125 167.1875 C66.56917812 168.82152271 64.79542626 170.42340686 63 172 C60.82796095 174.38010493 58.76592753 176.85065818 56.6875 179.3125 C55.57368974 180.59425413 54.45779399 181.87419893 53.33984375 183.15234375 C50.62243917 186.27250228 47.94212209 189.42204336 45.27124023 192.58203125 C33.19798218 206.81185105 20.98385478 217.90984998 3 224 C2.10152344 224.31839844 1.20304687 224.63679687 0.27734375 224.96484375 C-21.14095063 231.22025409 -45.04827283 227.63600443 -64.37109375 217.13671875 C-69.37736246 214.27321097 -73.7539005 210.89598252 -78 207 C-78.75539063 206.33613281 -79.51078125 205.67226563 -80.2890625 204.98828125 C-94.24191049 192.01836585 -103.65157769 172.74798468 -104.43359375 153.66796875 C-104.4572833 151.50794201 -104.45811186 149.3475583 -104.4375 147.1875 C-104.42847656 146.04748535 -104.41945313 144.9074707 -104.41015625 143.73291016 C-104.00222485 123.82075864 -96.42480855 106.61357022 -83 92 C-82.23067139 91.16057861 -82.23067139 91.16057861 -81.44580078 90.30419922 C-78.64794062 87.25789631 -75.83155026 84.22983953 -73 81.21484375 C-70.19482746 78.22225667 -67.48385954 75.1603944 -64.8046875 72.0546875 C-62.41218263 69.33075338 -59.95595796 66.6665509 -57.5 64 C-54.48071367 60.72146923 -51.47797806 57.43418978 -48.5625 54.0625 C-44.93855356 49.87967989 -41.16744254 45.83728193 -37.40478516 41.77978516 C-34.15135213 38.26517971 -30.96591238 34.70391333 -27.83203125 31.08203125 C-25.46749989 28.39483463 -23.04781503 25.75950126 -20.625 23.125 C-11.42102985 13.15217318 -11.42102985 13.15217318 -2.5625 2.875 C-1.716875 1.92625 -0.87125 0.9775 0 0 Z M-63 97 C-63.70769531 97.51046875 -64.41539063 98.0209375 -65.14453125 98.546875 C-76.70970869 107.76251935 -84.40676188 122.60633885 -87 137 C-88.08079311 148.70044939 -87.66114351 160.09844397 -83 171 C-82.4740625 172.29744141 -82.4740625 172.29744141 -81.9375 173.62109375 C-74.6346285 189.87505428 -60.96737027 200.17494491 -45 207 C-27.54671877 213.45629509 -9.98264085 211.24369367 6.703125 203.79296875 C21.56061712 196.42789766 32.39857431 183.72670121 38.4375 168.375 C44.09353393 150.81288552 42.95847606 133.3065142 34.53051758 116.86132812 C25.9510323 101.35013629 11.57819144 90.59175393 -5.26953125 85.28515625 C-7.50986713 84.7321364 -9.71664123 84.33322649 -12 84 C-13.33611328 83.79890625 -13.33611328 83.79890625 -14.69921875 83.59375 C-32.52538194 81.49935432 -48.60198489 86.60268925 -63 97 Z " fill="#000000" transform="translate(104,253)"/>
<path d="M0 0 C1.26811523 -0.01260864 2.53623047 -0.02521729 3.84277344 -0.03820801 C5.22331295 -0.03104817 6.60384739 -0.02284418 7.984375 -0.01367188 C9.40397406 -0.0163675 10.82357131 -0.02025051 12.24316406 -0.02526855 C15.21567394 -0.03116045 18.18770241 -0.02261142 21.16015625 -0.00390625 C24.96696287 0.01888413 28.77264149 0.00575925 32.57940674 -0.01819611 C35.51001456 -0.03266301 38.44035574 -0.02804423 41.37097168 -0.01768494 C42.77437474 -0.01502007 44.17780215 -0.01827905 45.58117676 -0.02760315 C47.54369635 -0.03778128 49.50630102 -0.01951228 51.46875 0 C52.58475586 0.00318237 53.70076172 0.00636475 54.85058594 0.00964355 C57.734375 0.51757812 57.734375 0.51757812 60.09362793 2.1583252 C62.21628961 5.21052982 62.24139082 7.07917501 62.25195312 10.78320312 C62.26456177 12.05131836 62.27717041 13.31943359 62.29016113 14.62597656 C62.2830013 16.00651608 62.27479731 17.38705051 62.265625 18.76757812 C62.26832062 20.18717718 62.27220363 21.60677444 62.27722168 23.02636719 C62.28311358 25.99887707 62.27456454 28.97090554 62.25585938 31.94335938 C62.233069 35.75016599 62.24619388 39.55584462 62.27014923 43.36260986 C62.28461614 46.29321769 62.27999735 49.22355887 62.26963806 52.1541748 C62.26697319 53.55757786 62.27023217 54.96100527 62.27955627 56.36437988 C62.28973441 58.32689947 62.2714654 60.28950414 62.25195312 62.25195312 C62.24877075 63.36795898 62.24558838 64.48396484 62.24230957 65.63378906 C61.734375 68.51757812 61.734375 68.51757812 60.09362793 70.87683105 C57.0414233 72.99949274 55.17277811 73.02459394 51.46875 73.03515625 C49.56657715 73.05406921 49.56657715 73.05406921 47.62597656 73.07336426 C46.24543705 73.06620442 44.86490261 73.05800043 43.484375 73.04882812 C42.06477594 73.05152375 40.64517869 73.05540676 39.22558594 73.0604248 C36.25307606 73.0663167 33.28104759 73.05776767 30.30859375 73.0390625 C26.50178713 73.01627212 22.69610851 73.029397 18.88934326 73.05335236 C15.95873544 73.06781926 13.02839426 73.06320048 10.09777832 73.05284119 C8.69437526 73.05017632 7.29094785 73.0534353 5.88757324 73.0627594 C3.92505365 73.07293753 1.96244898 73.05466853 0 73.03515625 C-1.11600586 73.03197388 -2.23201172 73.0287915 -3.38183594 73.0255127 C-6.265625 72.51757812 -6.265625 72.51757812 -8.62487793 70.87683105 C-10.74753961 67.82462643 -10.77264082 65.95598124 -10.78320312 62.25195312 C-10.79581177 60.98383789 -10.80842041 59.71572266 -10.82141113 58.40917969 C-10.8142513 57.02864017 -10.80604731 55.64810574 -10.796875 54.26757812 C-10.79957062 52.84797907 -10.80345363 51.42838181 -10.80847168 50.00878906 C-10.81436358 47.03627918 -10.80581454 44.06425071 -10.78710938 41.09179688 C-10.764319 37.28499026 -10.77744388 33.47931163 -10.80139923 29.67254639 C-10.81586614 26.74193856 -10.81124735 23.81159738 -10.80088806 20.88098145 C-10.79822319 19.47757839 -10.80148217 18.07415098 -10.81080627 16.67077637 C-10.82098441 14.70825678 -10.8027154 12.74565211 -10.78320312 10.78320312 C-10.78002075 9.66719727 -10.77683838 8.55119141 -10.77355957 7.40136719 C-10.265625 4.51757812 -10.265625 4.51757812 -8.62487793 2.1583252 C-5.5726733 0.03566351 -3.70402811 0.01056231 0 0 Z M6.734375 16.51757812 C6.734375 29.71757812 6.734375 42.91757812 6.734375 56.51757812 C19.274375 56.51757812 31.814375 56.51757812 44.734375 56.51757812 C44.734375 43.31757813 44.734375 30.11757813 44.734375 16.51757812 C32.194375 16.51757812 19.654375 16.51757812 6.734375 16.51757812 Z " fill="#000000" transform="translate(250.265625,359.482421875)"/>
<path d="M0 0 C8.66004988 5.23322033 14.97658686 12.57598199 17.921875 22.4140625 C20.00291858 33.20947609 18.6792127 43.56975721 13.0390625 53.08203125 C7.41510742 60.89017354 -0.21055815 65.96147902 -9.453125 68.5390625 C-12.42588691 68.95269908 -15.32972829 69.01703796 -18.328125 68.9765625 C-19.51220947 68.96520264 -19.51220947 68.96520264 -20.72021484 68.95361328 C-26.95338284 68.77794078 -32.03631118 67.77102762 -37.453125 64.5390625 C-38.52433594 63.90291016 -38.52433594 63.90291016 -39.6171875 63.25390625 C-47.6697956 57.84026148 -52.41620422 49.3905233 -55.140625 40.2265625 C-56.47180289 28.77843268 -54.54174291 18.81027939 -47.453125 9.5390625 C-36.10665694 -4.39010545 -15.96958511 -7.8965628 0 0 Z M-35.390625 21.7265625 C-38.54149372 26.63978152 -39.04410585 32.06089396 -38.078125 37.74609375 C-36.18892264 43.92142398 -31.95819585 47.38889298 -26.59375 50.6796875 C-21.6696137 52.65653054 -15.31018058 52.44671915 -10.2890625 50.8515625 C-5.21546236 48.16948313 -1.87946635 44.12006113 0.859375 39.1640625 C2.50385569 32.88513621 1.99236268 28.04995447 -1.109375 22.43359375 C-4.04727455 18.29149701 -7.63116698 15.14638184 -12.453125 13.5390625 C-22.32399929 12.51541628 -28.9356521 13.98793022 -35.390625 21.7265625 Z " fill="#000000" transform="translate(99.453125,367.4609375)"/>
<path d="M0 0 C6.83622409 5.5077271 12.42348137 12.49471209 13.8125 21.3125 C14.98688406 33.96648828 13.71168504 44.33807162 5.49609375 54.5 C-1.05107012 61.54845484 -9.03149979 65.6253838 -18.6171875 66.6953125 C-29.72851301 67.06001684 -38.61604939 64.46970283 -47.18359375 57.296875 C-55.08411291 49.47335895 -58.44915345 40.84954399 -58.5625 29.875 C-58.44534013 18.52147649 -55.57874599 10.80876647 -47.5234375 2.62109375 C-34.012479 -9.6868342 -14.8537866 -10.15716074 0 0 Z M-38.6328125 18.10546875 C-41.79946589 23.47549286 -42.07790997 29.23408911 -41.1875 35.3125 C-39.10842439 41.53804664 -34.43612318 45.46868685 -28.875 48.625 C-23.10114142 50.10203359 -18.18505478 50.27254638 -12.9375 47.1875 C-8.4812868 44.05658773 -4.94103954 40.57311863 -3.1875 35.3125 C-2.6758482 29.0447654 -2.49930728 23.65402049 -6.1875 18.3125 C-10.06542629 13.8057208 -13.7143899 10.85264154 -19.69921875 9.921875 C-27.7559875 9.42745683 -33.51643711 11.75839766 -38.6328125 18.10546875 Z " fill="#000000" transform="translate(222.1875,209.6875)"/>
</svg>
